<svg width="38" height="38" viewBox="0 0 38 38" fill="none" xmlns="http://www.w3.org/2000/svg">
<path d="M18.504 37.008C28.7235 37.008 37.008 28.7235 37.008 18.504C37.008 8.28452 28.7235 0 18.504 0C8.28455 0 0 8.28452 0 18.504C0 28.7235 8.28455 37.008 18.504 37.008Z" fill="white"/>
<path d="M21.5619 11.4465V13.7109C21.5619 13.7109 18.9619 13.3336 18.9619 15.0108V16.688H21.3099L21.0169 19.2459H18.9619V25.9131H16.3619V19.2459L14.1399 19.2039V16.688H16.3199V14.7592C16.3199 14.7592 16.1759 11.8898 19.0039 11.3627C20.1779 11.1438 21.5619 11.4465 21.5619 11.4465Z" fill="#87CEEB"/>
</svg>
