<svg width="38" height="38" viewBox="0 0 38 38" fill="none" xmlns="http://www.w3.org/2000/svg">
<path d="M19.379 37.008C29.5984 37.008 37.883 28.7235 37.883 18.504C37.883 8.28452 29.5984 0 19.379 0C9.15949 0 0.875 8.28452 0.875 18.504C0.875 28.7235 9.15949 37.008 19.379 37.008Z" fill="white"/>
<path d="M25.3541 19.3087V23.4315H22.9641V19.585C22.9641 18.6192 22.6191 17.9596 21.7531 17.9596C21.0931 17.9596 20.7001 18.4037 20.5271 18.8336C20.4641 18.9873 20.4481 19.2007 20.4481 19.4162V23.4313H18.0581C18.0581 23.4313 18.0901 16.9166 18.0581 16.2423H20.4481V17.261C20.4431 17.2691 20.4371 17.2769 20.4321 17.2846H20.4481V17.261C20.7661 16.7722 21.3321 16.0735 22.6021 16.0735C24.1751 16.0735 25.3541 17.101 25.3541 19.3087ZM15.5571 12.7769C14.7391 12.7769 14.2041 13.3137 14.2041 14.0188C14.2041 14.7091 14.7241 15.2613 15.5261 15.2613H15.5411C16.3751 15.2613 16.8931 14.7091 16.8931 14.0188C16.8771 13.3137 16.3751 12.7769 15.5571 12.7769ZM14.3461 23.4315H16.7361V16.2423H14.3461V23.4315Z" fill="#87CEEB"/>
</svg>
