<svg width="38" height="38" viewBox="0 0 38 38" fill="none" xmlns="http://www.w3.org/2000/svg">
<path d="M19.254 37.008C29.4735 37.008 37.758 28.7235 37.758 18.504C37.758 8.28452 29.4735 0 19.254 0C9.03455 0 0.75 8.28452 0.75 18.504C0.75 28.7235 9.03455 37.008 19.254 37.008Z" fill="white"/>
<path d="M25.38 15.6902C24.951 15.8803 24.49 16.0088 24.007 16.0662C24.5 15.7704 24.879 15.3025 25.058 14.744C24.596 15.018 24.084 15.2168 23.54 15.3239C23.104 14.8595 22.483 14.5693 21.795 14.5693C20.475 14.5693 19.405 15.6398 19.405 16.9596C19.405 17.147 19.426 17.3293 19.467 17.5044C17.48 17.4047 15.719 16.4532 14.54 15.0066C14.334 15.3596 14.216 15.7704 14.216 16.2084C14.216 17.0375 14.639 17.7695 15.28 18.198C14.888 18.1857 14.519 18.0782 14.197 17.8987C14.197 17.9089 14.197 17.919 14.197 17.929C14.197 19.0871 15.021 20.0531 16.114 20.2726C15.914 20.3275 15.702 20.3565 15.485 20.3565C15.33 20.3565 15.181 20.3417 15.035 20.3139C15.339 21.2633 16.222 21.9545 17.268 21.9739C16.45 22.6151 15.419 22.9971 14.299 22.9971C14.106 22.9971 13.916 22.9859 13.729 22.9636C14.786 23.642 16.043 24.0376 17.393 24.0376C21.789 24.0376 24.194 20.3954 24.194 17.2365C24.194 17.1329 24.192 17.0297 24.187 16.9274C24.654 16.5904 25.059 16.1696 25.38 15.6902Z" fill="#87CEEB"/>
</svg>
